<svg xmlns="http://www.w3.org/2000/svg" xmlns:xlink="http://www.w3.org/1999/xlink" version="1.1" x="0px" y="0px" viewBox="0 0 100 125" enable-background="new 0 0 100 100" xml:space="preserve"><g><circle cx="41.9" cy="89" r="6.2"/><circle cx="70.5" cy="89" r="6.2"/><g><path d="M85.1,38.2h-2.3c-0.9,0-1.9,0-2.8,0H35.7L35,36c-1.4-4.7-5.7-7.9-10.6-7.9H10.1c-3,0-5.3,2.6-5,5.6    c0.3,2.6,2.6,4.5,5.3,4.5h8.1c2.5,0,4.8,1.7,5.5,4.1l1.7,5.7c0,0.1,0,0.2,0,0.2l7.2,23.8c1.2,3.9,4.8,6.6,8.9,6.6h31    c4.2,0,7.9-2.8,8.9-6.9l5-23.7c1.8-0.6,3.3-2.2,3.5-4.2C90.4,40.8,88,38.2,85.1,38.2z M57.5,70.8c-6.8,0-12.4-5.5-12.4-12.4    c0-6.8,5.5-12.4,12.4-12.4c6.8,0,12.4,5.5,12.4,12.4C69.9,65.3,64.4,70.8,57.5,70.8z"/></g><path d="M60.4,58.4L60.4,58.4l3.2-3.2c0.6-0.6,0.6-1.6,0-2.2L63,52.3c-0.6-0.6-1.6-0.6-2.2,0l-3.1,3.1l0,0l0,0l-3.1-3.1   c-0.6-0.6-1.6-0.6-2.2,0L51.5,53c-0.6,0.6-0.6,1.6,0,2.2l3.1,3.1l0,0l-3.2,3.2c-0.6,0.6-0.6,1.6,0,2.2l0.6,0.6   c0.6,0.6,1.6,0.6,2.2,0l3.2-3.2l3.2,3.2c0.6,0.6,1.6,0.6,2.2,0l0.6-0.6c0.6-0.6,0.6-1.6,0-2.2L60.4,58.4z"/></g><text x="0" y="115" fill="#000000" font-size="5px" font-weight="bold" font-family="'Helvetica Neue', Helvetica, Arial-Unicode, Arial, Sans-serif"></text><text x="0" y="120" fill="#000000" font-size="5px" font-weight="bold" font-family="'Helvetica Neue', Helvetica, Arial-Unicode, Arial, Sans-serif"></text></svg>